<?xml version="1.0" encoding="UTF-8" standalone="no" ?>
<!DOCTYPE svg PUBLIC "-//W3C//DTD SVG 1.1//EN" "http://www.w3.org/Graphics/SVG/1.1/DTD/svg11.dtd">
<svg xmlns="http://www.w3.org/2000/svg" xmlns:xlink="http://www.w3.org/1999/xlink" version="1.1" width="350" height="350" viewBox="0 0 350 350" xml:space="preserve">
<desc>Created with Fabric.js 1.7.22</desc>
<defs>
</defs>
<g id="icon" style="stroke: none; stroke-width: 1; stroke-dasharray: none; stroke-linecap: butt; stroke-linejoin: miter; stroke-miterlimit: 10; fill: none; fill-rule: nonzero; opacity: 1;" transform="translate(-1.9444444444444287 -1.9444444444444287) scale(3.89 3.89)" >
	<path d="M 45.118 44.007 c -4.559 -0.543 -6.683 -2.631 -6.683 -6.571 c 0 -3.62 2.945 -6.565 6.564 -6.565 c 3.62 0 6.564 2.945 6.564 6.565 c 0 0.552 0.447 1 1 1 s 1 -0.448 1 -1 c 0 -4.384 -3.312 -8.004 -7.564 -8.501 v -2.492 c 0 -0.552 -0.448 -1 -1 -1 s -1 0.448 -1 1 v 2.492 c -4.252 0.498 -7.564 4.118 -7.564 8.501 c 0 3.445 1.465 7.726 8.446 8.558 c 4.56 0.543 6.683 2.631 6.683 6.571 c 0 3.62 -2.944 6.564 -6.564 6.564 c -3.62 0 -6.564 -2.944 -6.564 -6.564 c 0 -0.553 -0.448 -1 -1 -1 s -1 0.447 -1 1 c 0 4.384 3.312 8.003 7.564 8.501 v 2.493 c 0 0.553 0.448 1 1 1 s 1 -0.447 1 -1 v -2.493 c 4.252 -0.497 7.564 -4.117 7.564 -8.501 C 53.564 49.119 52.099 44.838 45.118 44.007 z" style="stroke: none; stroke-width: 1; stroke-dasharray: none; stroke-linecap: butt; stroke-linejoin: miter; stroke-miterlimit: 10; fill: rgb(0,0,0); fill-rule: nonzero; opacity: 1;" transform=" matrix(1 0 0 1 0 0) " stroke-linecap="round" />
	<path d="M 52.527 90 H 37.472 c -1.545 0 -2.802 -1.257 -2.802 -2.803 v -2.241 c 0 -1.516 -0.927 -2.854 -2.306 -3.33 c -1.472 -0.508 -2.93 -1.114 -4.334 -1.801 c -1.305 -0.638 -2.895 -0.352 -3.957 0.71 l -1.607 1.607 c -1.059 1.059 -2.905 1.059 -3.963 0 L 7.857 71.497 c -0.529 -0.529 -0.821 -1.233 -0.821 -1.981 c 0 -0.749 0.292 -1.453 0.822 -1.982 l 1.606 -1.606 c 1.062 -1.063 1.348 -2.652 0.71 -3.956 c -0.685 -1.401 -1.291 -2.859 -1.801 -4.334 c -0.477 -1.38 -1.814 -2.307 -3.33 -2.307 H 2.802 C 1.257 55.33 0 54.073 0 52.527 V 37.472 c 0 -1.545 1.257 -2.802 2.802 -2.802 h 2.242 c 1.515 0 2.853 -0.927 3.33 -2.307 c 0.508 -1.471 1.114 -2.929 1.8 -4.333 c 0.638 -1.305 0.352 -2.895 -0.71 -3.957 l -1.607 -1.607 c -1.093 -1.093 -1.093 -2.871 0 -3.963 L 18.503 7.857 c 1.058 -1.058 2.904 -1.059 3.963 0 l 1.607 1.607 c 1.063 1.062 2.652 1.347 3.957 0.71 c 1.4 -0.685 2.858 -1.291 4.333 -1.801 c 1.379 -0.477 2.306 -1.814 2.306 -3.33 V 2.802 C 34.67 1.257 35.927 0 37.472 0 h 15.055 c 1.546 0 2.803 1.257 2.803 2.802 v 2.242 c 0 1.515 0.927 2.853 2.306 3.329 c 1.476 0.51 2.934 1.116 4.335 1.801 c 1.303 0.637 2.895 0.352 3.956 -0.71 l 1.607 -1.607 c 1.056 -1.058 2.903 -1.059 3.963 0 l 10.646 10.646 c 1.093 1.093 1.093 2.871 0 3.963 l -1.607 1.607 c -1.063 1.063 -1.348 2.652 -0.71 3.957 c 0.687 1.403 1.293 2.861 1.801 4.333 c 0.477 1.379 1.814 2.306 3.33 2.306 h 2.241 c 1.546 0 2.803 1.257 2.803 2.802 v 15.055 c 0 1.546 -1.257 2.803 -2.803 2.803 h -2.241 c -1.516 0 -2.854 0.927 -3.33 2.306 c -0.507 1.47 -1.112 2.928 -1.8 4.334 c -0.638 1.306 -0.353 2.896 0.71 3.957 l 1.606 1.607 c 0.529 0.528 0.821 1.232 0.821 1.981 c 0 0.748 -0.292 1.452 -0.821 1.981 L 71.497 82.143 c -1.06 1.06 -2.906 1.058 -3.964 0 l -1.606 -1.607 c -1.062 -1.063 -2.653 -1.348 -3.956 -0.71 c -1.404 0.688 -2.863 1.293 -4.335 1.801 c -1.379 0.477 -2.306 1.814 -2.306 3.33 v 2.241 C 55.33 88.743 54.073 90 52.527 90 z M 26.568 77.489 c 0.797 0 1.597 0.176 2.34 0.539 c 1.331 0.651 2.713 1.226 4.108 1.707 c 2.185 0.755 3.653 2.853 3.653 5.221 v 2.241 c 0 0.442 0.36 0.803 0.802 0.803 h 15.055 c 0.442 0 0.803 -0.36 0.803 -0.803 v -2.241 c 0 -2.368 1.468 -4.466 3.653 -5.221 c 1.395 -0.481 2.777 -1.056 4.108 -1.707 c 2.071 -1.014 4.584 -0.573 6.249 1.093 l 1.607 1.607 c 0.303 0.302 0.831 0.304 1.135 0 l 10.646 -10.646 c 0.151 -0.151 0.235 -0.354 0.235 -0.567 c 0 -0.215 -0.084 -0.416 -0.235 -0.566 l -1.606 -1.608 c -1.667 -1.665 -2.105 -4.177 -1.093 -6.249 c 0.651 -1.333 1.226 -2.716 1.706 -4.108 c 0.755 -2.186 2.853 -3.653 5.221 -3.653 h 2.241 c 0.442 0 0.803 -0.36 0.803 -0.803 V 37.472 c 0 -0.442 -0.36 -0.802 -0.803 -0.802 h -2.241 c -2.368 0 -4.466 -1.468 -5.221 -3.653 c -0.481 -1.396 -1.056 -2.778 -1.707 -4.108 c -1.013 -2.072 -0.573 -4.583 1.093 -6.25 l 1.607 -1.607 c 0.313 -0.313 0.313 -0.822 0 -1.135 L 70.083 9.271 c -0.304 -0.304 -0.834 -0.303 -1.134 0 l -1.608 1.607 c -1.665 1.666 -4.178 2.105 -6.249 1.093 c -1.328 -0.649 -2.711 -1.224 -4.109 -1.707 c -2.185 -0.755 -3.652 -2.853 -3.652 -5.22 V 2.802 C 53.33 2.36 52.97 2 52.527 2 H 37.472 C 37.03 2 36.67 2.36 36.67 2.802 v 2.242 c 0 2.368 -1.468 4.465 -3.653 5.22 c -1.399 0.483 -2.781 1.058 -4.108 1.707 c -2.072 1.013 -4.583 0.574 -6.25 -1.093 l -1.607 -1.607 c -0.304 -0.303 -0.832 -0.304 -1.134 0 L 9.271 19.917 c -0.313 0.313 -0.313 0.822 0 1.135 l 1.607 1.607 c 1.667 1.666 2.105 4.178 1.093 6.249 c -0.651 1.332 -1.225 2.714 -1.707 4.108 c -0.755 2.185 -2.854 3.653 -5.22 3.653 H 2.802 C 2.36 36.67 2 37.03 2 37.472 v 15.055 c 0 0.442 0.36 0.803 0.802 0.803 h 2.242 c 2.368 0 4.465 1.468 5.22 3.653 c 0.483 1.397 1.058 2.78 1.707 4.108 c 1.013 2.071 0.573 4.583 -1.093 6.249 l -1.607 1.607 C 9.12 69.1 9.036 69.301 9.036 69.516 c 0 0.214 0.084 0.416 0.235 0.567 l 10.646 10.646 c 0.303 0.303 0.831 0.303 1.135 0 l 1.607 -1.607 C 23.727 78.053 25.144 77.489 26.568 77.489 z" style="stroke: none; stroke-width: 1; stroke-dasharray: none; stroke-linecap: butt; stroke-linejoin: miter; stroke-miterlimit: 10; fill: rgb(0,0,0); fill-rule: nonzero; opacity: 1;" transform=" matrix(1 0 0 1 0 0) " stroke-linecap="round" />
	<path d="M 45.04 75.998 c -8.227 0 -16.118 -3.236 -21.959 -9.078 c -6.425 -6.425 -9.699 -15.33 -8.981 -24.433 c 1.183 -15.001 13.387 -27.205 28.388 -28.388 c 9.105 -0.713 18.009 2.556 24.434 8.98 s 9.698 15.33 8.98 24.432 C 74.719 62.514 62.515 74.718 47.513 75.9 h 0.001 C 46.688 75.966 45.861 75.998 45.04 75.998 z M 44.959 16.002 c -0.769 0 -1.542 0.03 -2.315 0.091 c -14.03 1.106 -25.445 12.521 -26.551 26.551 c -0.672 8.519 2.39 16.851 8.401 22.862 s 14.348 9.073 22.861 8.4 h 0.001 c 14.03 -1.106 25.444 -12.521 26.551 -26.551 c 0.672 -8.519 -2.391 -16.852 -8.401 -22.862 C 60.042 19.029 52.657 16.002 44.959 16.002 z" style="stroke: none; stroke-width: 1; stroke-dasharray: none; stroke-linecap: butt; stroke-linejoin: miter; stroke-miterlimit: 10; fill: rgb(0,0,0); fill-rule: nonzero; opacity: 1;" transform=" matrix(1 0 0 1 0 0) " stroke-linecap="round" />
</g>
</svg>