<?xml version="1.0" encoding="UTF-8" standalone="no" ?>
<!DOCTYPE svg PUBLIC "-//W3C//DTD SVG 1.1//EN" "http://www.w3.org/Graphics/SVG/1.1/DTD/svg11.dtd">
<svg xmlns="http://www.w3.org/2000/svg" xmlns:xlink="http://www.w3.org/1999/xlink" version="1.1" width="350" height="350" viewBox="0 0 350 350" xml:space="preserve">
<desc>Created with Fabric.js 1.7.22</desc>
<defs>
</defs>
<g id="icon" style="stroke: none; stroke-width: 1; stroke-dasharray: none; stroke-linecap: butt; stroke-linejoin: miter; stroke-miterlimit: 10; fill: none; fill-rule: nonzero; opacity: 1;" transform="translate(-1.9444444444444287 -1.9444444444444287) scale(3.89 3.89)" >
	<path d="M 79.115 61.697 c 0 -11.72 -14.496 -21.567 -9.016 -40.66 c -5.797 2.966 -10.972 6.755 -13.435 14.142 C 57.977 19.886 52.475 8.438 41.638 0 c 2.88 12.726 3.221 24.818 -7.602 34.119 c -3.828 -7.431 -10.412 -11.03 -17.855 -13.435 c 6.196 17.185 -5.297 28.588 -5.297 41.013 h -0.03 c 0 11.78 5.965 22.166 15.039 28.303 c -2.732 -3.836 -4.355 -8.515 -4.355 -13.583 l 0.021 0 c 0 -8.053 9.96 -14.819 6.195 -27.937 c 3.983 2.038 7.539 4.642 9.231 9.717 C 36.083 47.689 48.625 42.172 47.31 34.025 c 5.946 8.147 -2.213 17.052 5.223 23.443 c 2.63 -5.106 7.154 -7.579 12.268 -9.231 c -4.257 11.808 3.639 19.643 3.639 28.18 h 0.021 c 0 5.068 -1.623 9.747 -4.355 13.583 c 9.074 -6.138 15.039 -16.524 15.039 -28.303 L 79.115 61.697 z" style="stroke: none; stroke-width: 1; stroke-dasharray: none; stroke-linecap: butt; stroke-linejoin: miter; stroke-miterlimit: 10; fill: rgb(0,0,0); fill-rule: nonzero; opacity: 1;" transform=" matrix(1 0 0 1 0 0) " stroke-linecap="round" />
</g>
</svg>