<?xml version="1.0" encoding="UTF-8" standalone="no" ?>
<!DOCTYPE svg PUBLIC "-//W3C//DTD SVG 1.1//EN" "http://www.w3.org/Graphics/SVG/1.1/DTD/svg11.dtd">
<svg xmlns="http://www.w3.org/2000/svg" xmlns:xlink="http://www.w3.org/1999/xlink" version="1.1" width="350" height="350" viewBox="0 0 350 350" xml:space="preserve">
<desc>Created with Fabric.js 1.7.22</desc>
<defs>
</defs>
<g id="icon" style="stroke: none; stroke-width: 1; stroke-dasharray: none; stroke-linecap: butt; stroke-linejoin: miter; stroke-miterlimit: 10; fill: none; fill-rule: nonzero; opacity: 1;" transform="translate(-1.9444444444444287 -1.9444444444444287) scale(3.89 3.89)" >
	<path d="M 61.471 53.003 c -2.232 0 -4.048 -1.816 -4.048 -4.048 c 0 -2.232 1.816 -4.048 4.048 -4.048 s 4.048 1.816 4.048 4.048 C 65.519 51.188 63.703 53.003 61.471 53.003 z M 61.471 47.875 c -0.596 0 -1.081 0.485 -1.081 1.081 c 0 0.596 0.485 1.081 1.081 1.081 c 0.596 0 1.081 -0.485 1.081 -1.081 C 62.552 48.36 62.067 47.875 61.471 47.875 z" style="stroke: none; stroke-width: 1; stroke-dasharray: none; stroke-linecap: butt; stroke-linejoin: miter; stroke-miterlimit: 10; fill: rgb(0,0,0); fill-rule: nonzero; opacity: 1;" transform=" matrix(1 0 0 1 0 0) " stroke-linecap="round" />
	<path d="M 75.222 39.317 h -1.033 V 13.171 c 0 -2.587 -2.105 -4.692 -4.691 -4.692 H 35.51 V 2.272 c 0 -0.918 -0.547 -1.74 -1.393 -2.094 c -0.818 -0.343 -1.753 -0.179 -2.406 0.414 l -4.473 3.63 l -4.473 -3.63 c -0.652 -0.594 -1.586 -0.756 -2.406 -0.414 c -0.846 0.355 -1.393 1.177 -1.393 2.094 V 8.48 h -2.704 c -2.587 0 -4.692 2.105 -4.692 4.692 v 72.138 c 0 2.587 2.105 4.691 4.692 4.691 h 53.236 c 2.587 0 4.691 -2.105 4.691 -4.691 V 58.594 h 1.033 c 1.769 0 3.208 -1.439 3.208 -3.208 v -12.86 C 78.43 40.756 76.991 39.317 75.222 39.317 z M 71.221 13.171 v 26.145 h -5.138 v -27.87 h 3.414 C 70.448 11.447 71.221 12.22 71.221 13.171 z M 21.932 3.737 L 26 7.038 c 0.717 0.583 1.757 0.585 2.475 0.001 l 4.068 -3.301 V 8.48 H 21.932 V 3.737 z M 14.537 85.309 V 13.171 c 0 -0.951 0.774 -1.724 1.724 -1.724 h 46.855 v 27.87 h -1.809 c -5.315 0 -9.638 4.324 -9.638 9.639 c 0 5.315 4.323 9.638 9.638 9.638 h 1.809 v 28.439 H 16.261 C 15.31 87.033 14.537 86.259 14.537 85.309 z M 71.221 85.309 c 0 0.95 -0.774 1.724 -1.724 1.724 h -3.414 V 58.594 h 5.138 V 85.309 z M 61.307 55.379 c -3.542 0 -6.424 -2.882 -6.424 -6.424 c 0 -3.542 2.882 -6.424 6.424 -6.424 l 13.909 -0.006 l 0.006 12.854 H 61.307 z" style="stroke: none; stroke-width: 1; stroke-dasharray: none; stroke-linecap: butt; stroke-linejoin: miter; stroke-miterlimit: 10; fill: rgb(0,0,0); fill-rule: nonzero; opacity: 1;" transform=" matrix(1 0 0 1 0 0) " stroke-linecap="round" />
	<path d="M 32.796 63.046 c -0.364 0 -0.729 -0.132 -1.016 -0.396 c -6.404 -5.896 -10.54 -13.283 -12.292 -21.957 c -0.085 -0.423 0.016 -0.862 0.277 -1.206 c 0.262 -0.343 0.658 -0.558 1.089 -0.588 c 3.904 -0.272 7.658 -1.5 11.157 -3.649 c 0.481 -0.296 1.088 -0.296 1.569 0 c 3.5 2.149 7.253 3.376 11.157 3.649 c 0.431 0.03 0.827 0.245 1.089 0.588 c 0.261 0.343 0.363 0.783 0.277 1.206 c -1.752 8.674 -5.888 16.062 -12.292 21.957 C 33.525 62.914 33.16 63.046 32.796 63.046 z M 22.789 41.715 c 1.68 6.885 5.04 12.847 10.007 17.758 c 4.967 -4.911 8.327 -10.873 10.007 -17.758 c -3.481 -0.471 -6.836 -1.625 -10.007 -3.443 C 29.625 40.09 26.27 41.244 22.789 41.715 z" style="stroke: none; stroke-width: 1; stroke-dasharray: none; stroke-linecap: butt; stroke-linejoin: miter; stroke-miterlimit: 10; fill: rgb(0,0,0); fill-rule: nonzero; opacity: 1;" transform=" matrix(1 0 0 1 0 0) " stroke-linecap="round" />
</g>
</svg>