<?xml version="1.0" encoding="UTF-8" standalone="no" ?>
<!DOCTYPE svg PUBLIC "-//W3C//DTD SVG 1.1//EN" "http://www.w3.org/Graphics/SVG/1.1/DTD/svg11.dtd">
<svg xmlns="http://www.w3.org/2000/svg" xmlns:xlink="http://www.w3.org/1999/xlink" version="1.1" width="350" height="350" viewBox="0 0 350 350" xml:space="preserve">
<desc>Created with Fabric.js 1.7.22</desc>
<defs>
</defs>
<g id="icon" style="stroke: none; stroke-width: 1; stroke-dasharray: none; stroke-linecap: butt; stroke-linejoin: miter; stroke-miterlimit: 10; fill: none; fill-rule: nonzero; opacity: 1;" transform="translate(-1.9444444444444287 -1.9444444444444287) scale(3.89 3.89)" >
	<path d="M 84.27 37.71 L 49.289 13.302 c 0.151 -0.452 0.253 -0.928 0.253 -1.43 c 0 -2.505 -2.037 -4.542 -4.542 -4.542 s -4.542 2.038 -4.542 4.542 c 0 0.501 0.101 0.974 0.251 1.425 L 5.731 37.71 C 2.537 37.918 0 40.575 0 43.821 v 32.718 c 0 3.381 2.751 6.132 6.132 6.132 h 77.736 c 3.381 0 6.132 -2.751 6.132 -6.132 V 43.821 C 90 40.576 87.463 37.918 84.27 37.71 z M 45 9.329 c 1.401 0 2.542 1.141 2.542 2.542 S 46.401 14.414 45 14.414 c -1.402 0 -2.542 -1.141 -2.542 -2.542 S 43.598 9.329 45 9.329 z M 45 16.414 c 1.28 0 2.433 -0.537 3.259 -1.391 l 32.485 22.667 H 9.254 l 32.482 -22.672 C 42.563 15.875 43.717 16.414 45 16.414 z M 88 76.539 c 0 2.278 -1.854 4.132 -4.132 4.132 H 6.132 C 3.854 80.671 2 78.817 2 76.539 V 43.821 c 0 -2.278 1.854 -4.132 4.132 -4.132 h 77.736 c 2.278 0 4.132 1.854 4.132 4.132 V 76.539 z" style="stroke: none; stroke-width: 1; stroke-dasharray: none; stroke-linecap: butt; stroke-linejoin: miter; stroke-miterlimit: 10; fill: rgb(0,0,0); fill-rule: nonzero; opacity: 1;" transform=" matrix(1 0 0 1 0 0) " stroke-linecap="round" />
	<path d="M 59.637 72.464 H 48.01 c -0.553 0 -1 -0.447 -1 -1 V 49.748 c 0 -0.553 0.447 -1 1 -1 s 1 0.447 1 1 v 20.716 h 10.627 c 0.553 0 1 0.447 1 1 S 60.189 72.464 59.637 72.464 z" style="stroke: none; stroke-width: 1; stroke-dasharray: none; stroke-linecap: butt; stroke-linejoin: miter; stroke-miterlimit: 10; fill: rgb(0,0,0); fill-rule: nonzero; opacity: 1;" transform=" matrix(1 0 0 1 0 0) " stroke-linecap="round" />
	<path d="M 17.78 72.464 h -7.086 c -0.552 0 -1 -0.447 -1 -1 s 0.448 -1 1 -1 h 7.086 c 1.528 0 2.771 -1.243 2.771 -2.771 v -3.315 c 0 -1.528 -1.243 -2.771 -2.771 -2.771 h -3.946 c -2.631 0 -4.772 -2.141 -4.772 -4.771 V 53.52 c 0 -2.631 2.141 -4.771 4.772 -4.771 h 7.086 c 0.552 0 1 0.447 1 1 s -0.448 1 -1 1 h -7.086 c -1.528 0 -2.772 1.243 -2.772 2.771 v 3.314 c 0 1.528 1.244 2.771 2.772 2.771 h 3.946 c 2.631 0 4.771 2.141 4.771 4.771 v 3.315 C 22.552 70.323 20.411 72.464 17.78 72.464 z" style="stroke: none; stroke-width: 1; stroke-dasharray: none; stroke-linecap: butt; stroke-linejoin: miter; stroke-miterlimit: 10; fill: rgb(0,0,0); fill-rule: nonzero; opacity: 1;" transform=" matrix(1 0 0 1 0 0) " stroke-linecap="round" />
	<path d="M 36.873 48.748 h -4.115 c -3.133 0 -5.682 2.549 -5.682 5.682 v 17.034 c 0 0.553 0.448 1 1 1 s 1 -0.447 1 -1 v -9.858 h 11.479 v 9.858 c 0 0.553 0.448 1 1 1 s 1 -0.447 1 -1 V 54.43 C 42.555 51.297 40.006 48.748 36.873 48.748 z M 29.076 59.605 V 54.43 c 0 -2.03 1.652 -3.682 3.682 -3.682 h 4.115 c 2.03 0 3.682 1.651 3.682 3.682 v 5.176 H 29.076 z" style="stroke: none; stroke-width: 1; stroke-dasharray: none; stroke-linecap: butt; stroke-linejoin: miter; stroke-miterlimit: 10; fill: rgb(0,0,0); fill-rule: nonzero; opacity: 1;" transform=" matrix(1 0 0 1 0 0) " stroke-linecap="round" />
	<path d="M 78.645 61.605 c 0.553 0 1 -0.447 1 -1 s -0.447 -1 -1 -1 H 68.018 v -8.857 h 10.627 c 0.553 0 1 -0.447 1 -1 s -0.447 -1 -1 -1 H 67.018 c -0.553 0 -1 0.447 -1 1 v 21.716 c 0 0.553 0.447 1 1 1 h 11.627 c 0.553 0 1 -0.447 1 -1 s -0.447 -1 -1 -1 H 68.018 v -8.858 H 78.645 z" style="stroke: none; stroke-width: 1; stroke-dasharray: none; stroke-linecap: butt; stroke-linejoin: miter; stroke-miterlimit: 10; fill: rgb(0,0,0); fill-rule: nonzero; opacity: 1;" transform=" matrix(1 0 0 1 0 0) " stroke-linecap="round" />
</g>
</svg>