<?xml version="1.0" encoding="UTF-8" standalone="no" ?>
<!DOCTYPE svg PUBLIC "-//W3C//DTD SVG 1.1//EN" "http://www.w3.org/Graphics/SVG/1.1/DTD/svg11.dtd">
<svg xmlns="http://www.w3.org/2000/svg" xmlns:xlink="http://www.w3.org/1999/xlink" version="1.1" width="350" height="350" viewBox="0 0 350 350" xml:space="preserve">
<desc>Created with Fabric.js 1.7.22</desc>
<defs>
</defs>
<g id="icon" style="stroke: none; stroke-width: 1; stroke-dasharray: none; stroke-linecap: butt; stroke-linejoin: miter; stroke-miterlimit: 10; fill: none; fill-rule: nonzero; opacity: 1;" transform="translate(-1.9444444444444287 -1.9444444444444287) scale(3.89 3.89)" >
	<path d="M 85.164 29.251 l -8.833 -6.797 V 8.626 c 0 -1.947 -1.584 -3.532 -3.531 -3.532 H 67.3 c -1.947 0 -3.532 1.585 -3.532 3.532 v 4.161 l -14.92 -11.48 c -2.266 -1.743 -5.43 -1.743 -7.695 0 L 4.835 29.251 c -0.848 0.653 -1.173 1.73 -0.829 2.743 c 0.345 1.013 1.259 1.668 2.329 1.668 h 7.333 v 50.136 c 0 3.421 2.783 6.203 6.203 6.203 h 50.256 c 3.42 0 6.202 -2.782 6.202 -6.203 V 33.661 h 7.334 c 1.07 0 1.984 -0.655 2.329 -1.668 C 86.338 30.98 86.013 29.904 85.164 29.251 z M 65.768 8.626 c 0 -0.845 0.688 -1.532 1.532 -1.532 h 5.499 c 0.845 0 1.531 0.687 1.531 1.532 v 12.289 l -8.563 -6.589 V 8.626 z M 74.331 83.797 c 0 2.317 -1.885 4.203 -4.202 4.203 H 19.872 c -2.317 0 -4.203 -1.886 -4.203 -4.203 V 33.661 h 58.662 V 83.797 z M 84.1 31.349 c -0.04 0.117 -0.149 0.312 -0.436 0.312 H 6.336 c -0.287 0 -0.396 -0.195 -0.436 -0.312 c -0.04 -0.116 -0.072 -0.338 0.155 -0.513 L 42.372 2.892 C 43.146 2.297 44.073 1.999 45 1.999 c 0.927 0 1.855 0.298 2.629 0.893 l 36.316 27.943 C 84.173 31.011 84.139 31.233 84.1 31.349 z" style="stroke: none; stroke-width: 1; stroke-dasharray: none; stroke-linecap: butt; stroke-linejoin: miter; stroke-miterlimit: 10; fill: rgb(0,0,0); fill-rule: nonzero; opacity: 1;" transform=" matrix(1 0 0 1 0 0) " stroke-linecap="round" />
	<path d="M 45 79.979 l -0.589 -0.43 c -9.436 -6.883 -15.112 -16.482 -16.872 -28.532 l -0.128 -0.879 l 0.857 -0.231 c 6.186 -1.669 11.463 -4.173 16.134 -7.655 L 45 41.807 l 0.598 0.445 c 4.672 3.482 9.95 5.986 16.135 7.655 l 0.857 0.231 l -0.129 0.879 c -1.76 12.051 -7.437 21.65 -16.872 28.532 L 45 79.979 z M 29.653 51.599 C 31.432 62.438 36.591 71.144 45 77.497 c 8.409 -6.353 13.567 -15.058 15.348 -25.898 c -5.806 -1.66 -10.841 -4.057 -15.348 -7.305 C 40.494 47.542 35.458 49.938 29.653 51.599 z" style="stroke: none; stroke-width: 1; stroke-dasharray: none; stroke-linecap: butt; stroke-linejoin: miter; stroke-miterlimit: 10; fill: rgb(0,0,0); fill-rule: nonzero; opacity: 1;" transform=" matrix(1 0 0 1 0 0) " stroke-linecap="round" />
</g>
</svg>